# Blender 4.1.1
# www.blender.org
mtllib Bricks_Cube.mtl
o Bricks_Cube.676
v 0.950794 0.326356 -0.079897
v 0.934521 0.313393 -0.063809
v 1.080750 0.325429 -0.104914
v 1.060016 0.318545 -0.047785
v 0.485479 0.325287 -0.108734
v 0.506213 0.318545 -0.047785
v 0.957125 0.008244 -0.054663
v 0.934521 0.018073 -0.032308
v 1.072559 0.013588 -0.060333
v 1.049686 0.035506 -0.032308
v 0.485479 0.006848 -0.092331
v 0.511919 0.032747 -0.032308
v 1.014359 0.318545 -0.047785
v 0.934521 0.294680 -0.046556
v 0.934521 0.294676 -0.046556
v 0.784866 0.318545 -0.047785
v -0.317753 0.322537 -0.618032
v -0.324424 0.309574 -0.596144
v -0.356063 0.321610 -0.744709
v -0.396989 0.314726 -0.699780
v -0.075763 0.321468 -0.219548
v -0.139361 0.314726 -0.209548
v -0.343036 0.004425 -0.611898
v -0.352309 0.014254 -0.581490
v -0.391716 0.009769 -0.716719
v -0.405884 0.031687 -0.683435
v -0.090283 0.003029 -0.211917
v -0.155716 0.028928 -0.207400
v -0.339697 0.290861 -0.588118
v -0.339697 0.290857 -0.588118
v -0.268989 0.314726 -0.456214
v -0.655282 0.316177 -0.267695
v -0.644988 0.315748 -0.243413
v -0.733718 0.236844 -0.339624
v -0.743607 0.244360 -0.279550
v -0.373638 0.544408 -0.145287
v -0.414574 0.527071 -0.097972
v -0.511261 0.065748 -0.155210
v -0.511501 0.087462 -0.129867
v -0.592274 0.000378 -0.206484
v -0.601421 0.031996 -0.179721
v -0.220669 0.297452 -0.037976
v -0.282201 0.302826 -0.003522
v -0.711567 0.271889 -0.261869
v -0.643682 0.300912 -0.222680
v -0.643680 0.300908 -0.222679
v -0.550522 0.410262 -0.172996
v 0.503065 0.295422 0.494593
v 0.408454 0.299458 0.560131
v 0.520531 0.191324 0.482494
v 0.497802 0.316600 0.478664
v 0.554196 0.207262 0.411005
v 0.494711 0.334555 0.428673
v 0.539172 0.334555 0.390979
v 0.570188 0.314247 0.448096
v 0.536878 0.015165 0.387921
v 0.570188 0.035474 0.448096
v 0.056237 0.213464 0.786645
v 0.083625 0.191324 0.785144
v 0.052911 0.334555 0.782050
v 0.093681 0.311616 0.778178
v 0.034140 0.015165 0.756128
v 0.082522 0.041063 0.785908
v 0.490265 0.015165 0.422748
v 0.506180 0.055380 0.492435
v 0.565864 0.191324 0.451091
v -0.376582 0.174502 0.236973
v -0.303095 0.037069 0.244634
v -0.328982 -0.001742 0.173193
v 0.118531 0.022595 0.247167
v 0.141840 -0.001742 0.187510
v 0.121416 0.296653 0.247136
v 0.140630 0.317648 0.219508
v 0.133676 0.174502 0.247002
v 0.140415 0.196557 0.225178
v -0.381818 0.016944 0.244568
v -0.387132 -0.001742 0.171107
v -0.381818 0.298772 0.244568
v -0.387277 0.317648 0.174927
v -0.329263 0.317648 0.180595
v -0.388223 0.190355 0.199944
v -0.295023 0.280175 0.244546
v -0.320812 0.174502 0.238248
v 0.950794 0.326356 -0.270314
v 0.934521 0.313393 -0.286402
v 1.080750 0.325429 -0.245297
v 1.060016 0.318545 -0.302425
v 0.485479 0.325287 -0.241477
v 0.506213 0.318545 -0.302425
v 0.957125 0.008244 -0.295548
v 0.934521 0.018073 -0.317903
v 1.072559 0.013588 -0.289878
v 1.049686 0.035506 -0.317903
v 0.485479 0.006848 -0.257880
v 0.511919 0.032747 -0.317903
v 1.014359 0.318545 -0.302425
v 0.934521 0.294680 -0.303655
v 0.934521 0.294676 -0.303655
v 0.784866 0.318545 -0.302425
v -0.149194 0.322537 -0.706614
v -0.127384 0.309574 -0.699694
v -0.231795 0.321610 -0.810015
v -0.171580 0.314726 -0.818238
v 0.041742 0.321468 -0.281299
v 0.086048 0.314726 -0.328006
v -0.129802 0.004425 -0.723958
v -0.099499 0.014254 -0.714348
v -0.188522 0.009769 -0.823503
v -0.153073 0.031687 -0.816293
v 0.056262 0.003029 -0.288930
v 0.097094 0.028928 -0.340258
v -0.112111 0.290861 -0.707720
v -0.112111 0.290857 -0.707720
v -0.043580 0.314726 -0.574672
v -0.562089 0.314408 -0.433814
v -0.536006 0.313679 -0.437676
v -0.665076 0.235541 -0.461979
v -0.618899 0.241993 -0.501844
v -0.308745 0.543176 -0.260959
v -0.289866 0.524704 -0.320266
v -0.393303 0.063509 -0.365474
v -0.371604 0.084807 -0.379237
v -0.479881 -0.001756 -0.406827
v -0.461524 0.029341 -0.429091
v -0.139678 0.295915 -0.182343
v -0.142304 0.300170 -0.252892
v -0.586859 0.269522 -0.484163
v -0.517768 0.298522 -0.447125
v -0.517766 0.298518 -0.447124
v -0.425815 0.407894 -0.395290
v 0.349540 0.295422 0.272964
v 0.254929 0.299458 0.338502
v 0.367006 0.191324 0.260865
v 0.362602 0.316600 0.283490
v 0.445766 0.207262 0.254475
v 0.408316 0.334555 0.303955
v 0.459233 0.334555 0.275579
v 0.416663 0.314247 0.226467
v 0.461290 0.015165 0.278801
v 0.416663 0.035474 0.226467
v -0.080931 0.213464 0.588628
v -0.069900 0.191324 0.563515
v -0.077800 0.334555 0.593357
v -0.059845 0.311616 0.556550
v -0.060129 0.015165 0.620041
v -0.071003 0.041063 0.564279
v 0.412301 0.015165 0.310199
v 0.352655 0.055380 0.270806
v 0.412339 0.191324 0.229462
v -0.376582 0.174502 -0.027502
v -0.303095 0.037069 -0.035163
v -0.328982 -0.001742 0.036278
v 0.118531 0.022595 -0.037697
v 0.141840 -0.001742 0.021961
v 0.121416 0.296653 -0.037665
v 0.140630 0.317648 -0.010037
v 0.133676 0.174502 -0.037531
v 0.140415 0.196557 -0.015708
v -0.381818 0.016944 -0.035097
v -0.387132 -0.001742 0.038364
v -0.381818 0.298772 -0.035097
v -0.387277 0.317648 0.034544
v -0.329263 0.317648 0.028876
v -0.388223 0.190355 0.009527
v -0.295023 0.280175 -0.035075
v -0.320812 0.174502 -0.028778
vn 0.0030 -1.0000 -0.0000
vn -1.0000 -0.0000 -0.0000
vn -0.0000 0.9717 0.2364
vn -0.0023 1.0000 -0.0000
vn 0.0004 0.0537 0.9986
vn -0.1879 0.6658 0.7221
vn 0.9997 -0.0263 -0.0000
vn 0.0071 1.0000 -0.0000
vn 0.0303 0.9988 -0.0383
vn 0.0670 -0.7587 0.6480
vn -0.0317 -0.9126 0.4077
vn 0.9405 -0.0158 0.3394
vn -0.9468 -0.0015 0.3219
vn 0.0462 -0.9989 -0.0000
vn -0.0006 0.0546 0.9985
vn 0.1015 0.6743 0.7314
vn -0.0014 -1.0000 -0.0026
vn 0.4652 -0.0000 0.8852
vn -0.1311 0.9908 0.0324
vn 0.0011 1.0000 0.0020
vn -0.8848 0.0523 0.4629
vn -0.5898 0.6729 0.4464
vn -0.4650 -0.0263 -0.8849
vn -0.0033 1.0000 -0.0063
vn -0.1000 0.9944 0.0346
vn -0.6048 -0.7587 0.2422
vn -0.3462 -0.9126 0.2177
vn -0.7380 -0.0158 -0.6746
vn 0.0769 0.0204 0.9968
vn -0.0215 -0.9989 -0.0409
vn -0.8836 0.0546 0.4650
vn -0.8795 -0.0000 0.4758
vn 0.5182 -0.8012 0.2992
vn 0.6997 0.6012 0.3861
vn -0.6281 0.7264 0.2791
vn -0.5187 0.8008 -0.2995
vn -0.5185 0.0514 0.8535
vn 0.4878 -0.8260 0.2824
vn -0.6853 -0.6226 -0.3778
vn -0.5257 0.7948 -0.3034
vn -0.5821 0.7837 -0.2165
vn 0.0312 -0.6405 0.7673
vn 0.3012 -0.7003 0.6471
vn -0.8156 -0.5753 -0.0623
vn 0.4381 0.5725 0.6931
vn -0.5161 0.0522 0.8549
vn -0.8220 -0.0010 0.5694
vn 0.8220 0.0074 -0.5694
vn 0.2607 -0.8971 0.3567
vn 0.5694 -0.0000 0.8220
vn 0.1671 0.9311 0.3241
vn 0.8220 -0.0057 -0.5694
vn 0.8778 -0.0216 -0.4786
vn -0.0000 1.0000 -0.0000
vn -0.5273 0.0082 0.8496
vn 0.1172 0.0409 0.9923
vn -0.0000 -1.0000 -0.0000
vn 0.1710 -0.9583 0.2288
vn 0.3398 0.8290 0.4443
vn -0.8220 0.0040 0.5694
vn 0.8829 0.0305 -0.4686
vn -0.9961 0.0240 0.0846
vn 1.0000 -0.0018 -0.0000
vn -0.0192 -0.0548 0.9983
vn -0.0370 0.8534 0.5199
vn -0.0089 -0.9689 0.2471
vn 0.8114 0.0259 0.5840
vn -0.0192 0.0439 0.9988
vn -1.0000 -0.0057 -0.0000
vn 0.9145 -0.0907 0.3943
vn -0.9585 -0.0476 0.2810
vn 1.0000 0.0072 -0.0000
vn -0.0329 -0.8732 0.4863
vn -1.0000 0.0074 -0.0000
vn -0.0133 0.0486 0.9987
vn -0.0257 0.9643 0.2634
vn -0.0129 -0.0615 0.9980
vn -0.1050 0.8236 -0.5574
vn 0.0018 0.0523 -0.9986
vn -0.1879 0.6658 -0.7221
vn 0.0159 0.9944 -0.1046
vn 0.0670 -0.7587 -0.6480
vn -0.0317 -0.9126 -0.4077
vn 0.9405 -0.0158 -0.3394
vn -0.9182 0.0204 -0.3957
vn -0.0000 0.0514 -0.9987
vn -0.0081 -0.0000 -1.0000
vn 0.1010 0.9908 -0.0896
vn 0.8838 0.0537 -0.4648
vn 0.7022 0.6729 -0.2326
vn -0.0480 0.9988 -0.0090
vn 0.5425 -0.7587 -0.3607
vn 0.3757 -0.9126 -0.1616
vn -0.1371 -0.0158 -0.9904
vn 0.7254 -0.0015 0.6883
vn 0.8842 0.0546 -0.4640
vn 0.6002 0.6744 -0.4301
vn -0.3903 0.7742 -0.4982
vn 0.4591 0.0348 -0.8877
vn -0.5476 0.7785 -0.3067
vn 0.6652 -0.6525 -0.3629
vn 0.7029 -0.7080 -0.0689
vn -0.4835 -0.5816 -0.6542
vn 0.8207 0.5650 0.0853
vn 0.4597 0.0366 -0.8873
vn -0.2796 -0.8507 -0.4451
vn -0.5694 -0.0000 -0.8220
vn -0.1480 0.9526 -0.2656
vn 0.5890 0.0319 -0.8075
vn -0.9808 0.0082 0.1951
vn -0.8877 0.0409 -0.4585
vn -0.1541 -0.9583 -0.2405
vn -0.2988 0.8117 -0.5018
vn 0.7490 0.0305 -0.6619
vn -0.9961 0.0240 -0.0846
vn -0.0192 -0.0548 -0.9983
vn -0.0370 0.8534 -0.5199
vn -0.0089 -0.9689 -0.2471
vn 0.8114 0.0259 -0.5840
vn -0.0060 0.0017 -1.0000
vn 0.9145 -0.0907 -0.3943
vn -0.9585 -0.0476 -0.2810
vn -0.0114 -0.9274 -0.3739
vn -0.0133 0.0486 -0.9987
vn 0.1904 0.8881 -0.4184
vn -0.0228 -0.0539 -0.9983
vn -0.5685 0.6517 0.5021
vn -0.4608 -0.0220 0.8872
vn 0.4719 0.6018 0.6442
vn 0.3226 0.6189 0.7162
vn 0.1381 0.6383 -0.7573
vn -0.0643 0.4710 -0.8798
vn -0.4373 0.6018 -0.6683
vn -0.5571 0.6188 -0.5537
vn 0.0323 0.9908 0.1311
vn -0.1581 0.8409 0.5176
vn -0.0000 0.0541 0.9985
vn 0.0018 0.0514 0.9987
vn 0.0154 -0.0000 0.9999
vn -0.0392 0.7971 0.6026
vn -0.0000 0.9939 0.1099
vn 0.1291 -0.8530 0.5056
vn -0.0275 -0.9250 0.3789
vn 0.7973 0.0648 0.6000
vn -0.9182 0.0204 0.3957
vn -0.0000 0.0514 0.9987
vn -0.0078 0.0514 0.9986
vn -0.0083 -0.0000 1.0000
vn -0.4446 0.8236 0.3522
vn -0.8839 0.0541 0.4645
vn -0.8840 0.0514 0.4646
vn -0.8865 -0.0000 0.4628
vn -0.5152 0.7971 0.3150
vn 0.2710 0.9520 -0.1424
vn -0.5077 -0.8530 0.1209
vn -0.3226 -0.9250 0.2006
vn -0.9021 0.0648 -0.4267
vn 0.1555 -0.0015 0.9878
vn -0.8804 0.0514 0.4715
vn -0.6947 0.6744 0.2504
vn -0.6027 0.7736 -0.1960
vn -0.3459 0.7579 -0.5532
vn -0.5177 0.0541 0.8539
vn -0.5166 0.0517 0.8547
vn -0.6758 0.6739 0.2984
vn 0.1064 -0.7546 0.6475
vn 0.3227 -0.7172 0.6176
vn -0.8862 -0.4207 0.1942
vn 0.5057 0.5709 0.6467
vn -0.5154 0.0504 0.8555
vn -0.5121 0.0600 0.8569
vn 0.3184 -0.8507 0.4182
vn 0.1966 0.9526 0.2319
vn 0.9630 0.0319 -0.2676
vn -0.0630 -0.1449 0.9874
vn 0.0946 0.0497 0.9943
vn 0.5695 0.0003 0.8220
vn 0.0667 -0.8707 0.4872
vn 0.1203 0.9366 0.3290
vn 0.4465 0.6993 0.5582
vn 0.9549 -0.0408 -0.2941
vn -0.9592 -0.0573 0.2770
vn -0.0062 -0.0017 1.0000
vn -0.0483 0.8112 0.5828
vn 0.2267 -0.8879 0.4002
vn 0.9214 0.0921 0.3776
vn -0.0059 0.0017 1.0000
vn 0.9658 -0.0417 0.2561
vn -0.9974 0.0362 0.0629
vn -0.0114 -0.9274 0.3739
vn -0.0228 0.0435 0.9988
vn 0.1904 0.8881 0.4184
vn -0.0228 -0.0539 0.9983
vn 0.0323 0.9908 -0.1311
vn -0.0000 0.9520 0.3061
vn -0.0000 0.0541 -0.9985
vn 0.0151 -0.0000 -0.9999
vn -0.0392 0.7971 -0.6026
vn 0.1291 -0.8530 -0.5056
vn -0.0275 -0.9250 -0.3789
vn 0.7973 0.0648 -0.6000
vn -0.9468 -0.0015 -0.3219
vn -0.0000 0.0515 -0.9987
vn -0.0083 0.0549 -0.9985
vn 0.1015 0.6743 -0.7314
vn 0.5423 0.8236 -0.1664
vn 0.8839 0.0541 -0.4645
vn 0.8832 0.0514 -0.4662
vn 0.8807 -0.0000 -0.4737
vn 0.5517 0.7971 -0.2457
vn 0.0973 0.9939 -0.0511
vn 0.3875 -0.8530 -0.3495
vn 0.3482 -0.9250 -0.1519
vn 0.1602 0.0648 -0.9849
vn 0.7774 0.0204 0.6287
vn 0.8876 0.0514 -0.4577
vn 0.8865 -0.0000 -0.4628
vn -0.4744 0.7711 -0.4247
vn -0.0739 0.7622 -0.6431
vn 0.4593 0.0355 -0.8876
vn 0.4591 0.0320 -0.8878
vn -0.0915 0.6628 -0.7431
vn -0.4637 0.7932 -0.3947
vn 0.6012 -0.7640 -0.2344
vn 0.6887 -0.7242 -0.0348
vn -0.3000 -0.4319 -0.8506
vn 0.8250 0.5652 0.0034
vn 0.4618 0.0318 -0.8864
vn 0.4664 0.0382 -0.8838
vn -0.2423 -0.8971 -0.3694
vn -0.2447 0.9311 -0.2704
vn 0.7566 -0.0216 -0.6535
vn -0.9466 -0.1449 -0.2880
vn -0.8976 0.0497 -0.4380
vn -0.4327 -0.8707 -0.2337
vn -0.2657 0.9366 -0.2282
vn -0.4016 0.6764 -0.6174
vn 0.6110 -0.0408 -0.7906
vn -0.9592 -0.0573 -0.2770
vn -0.0062 -0.0017 -1.0000
vn -0.0483 0.8112 -0.5828
vn 0.2267 -0.8879 -0.4002
vn 0.9214 0.0921 -0.3776
vn -0.0192 0.0439 -0.9988
vn 0.9658 -0.0417 -0.2561
vn -0.9974 0.0362 -0.0629
vn -0.0329 -0.8732 -0.4863
vn -0.0229 0.0435 -0.9988
vn -0.0257 0.9643 -0.2634
vn -0.0129 -0.0615 -0.9980
vn -0.4910 -0.0198 0.8710
vn -0.7800 0.4846 0.3959
vn 0.4706 0.0098 -0.8823
vn 0.4606 0.0202 -0.8874
s 0
g off
g Bricks_Cube.676_Main.005
usemtl Main.005
f 7//1 94//1 90//1
f 94//2 5//2 88//2
f 1//3 13//3 4//3
f 88//4 1//4 84//4
f 12//5 15//5 16//5
f 14//6 13//6 2//6
f 3//7 92//7 86//7
f 3//8 84//8 1//8
f 5//9 16//9 2//9
f 10//10 7//10 9//10
f 11//11 8//11 12//11
f 10//12 3//12 4//12
f 5//13 12//13 6//13
f 90//14 9//14 7//14
f 15//15 10//15 4//15
f 16//16 14//16 2//16
f 110//17 23//17 106//17
f 21//18 110//18 104//18
f 20//19 17//19 19//19
f 100//20 21//20 104//20
f 31//21 24//21 28//21
f 20//22 29//22 18//22
f 108//23 19//23 102//23
f 100//24 19//24 17//24
f 18//25 22//25 21//25
f 23//26 26//26 25//26
f 24//27 27//27 28//27
f 19//28 26//28 20//28
f 21//29 28//29 27//29
f 108//30 23//30 25//30
f 26//31 30//31 20//31
f 31//32 29//32 30//32
f 121//33 42//33 38//33
f 119//34 42//34 125//34
f 35//35 33//35 32//35
f 115//36 36//36 119//36
f 47//37 39//37 43//37
f 123//38 38//38 40//38
f 123//39 34//39 117//39
f 32//40 117//40 34//40
f 33//41 37//41 36//41
f 38//42 41//42 40//42
f 39//43 42//43 43//43
f 34//44 41//44 35//44
f 36//45 43//45 42//45
f 35//46 39//46 46//46
f 60//47 141//47 58//47
f 135//48 54//48 52//48
f 64//49 63//49 62//49
f 66//50 65//50 57//50
f 55//51 53//51 51//51
f 135//52 56//52 139//52
f 52//53 57//53 56//53
f 136//54 60//54 53//54
f 59//55 62//55 63//55
f 58//56 61//56 60//56
f 64//57 145//57 147//57
f 66//50 48//50 50//50
f 48//50 61//50 59//50
f 57//58 64//58 56//58
f 56//57 147//57 139//57
f 53//59 61//59 49//59
f 141//60 62//60 58//60
f 55//61 52//61 54//61
f 136//54 54//54 137//54
f 65//50 59//50 63//50
f 79//54 163//54 162//54
f 81//62 78//62 79//62
f 75//63 156//63 73//63
f 152//57 77//57 160//57
f 80//54 156//54 163//54
f 74//64 82//64 83//64
f 72//65 80//65 82//65
f 69//66 76//66 77//66
f 72//67 75//67 73//67
f 68//68 74//68 83//68
f 77//69 164//69 160//69
f 71//70 74//70 70//70
f 77//71 67//71 81//71
f 154//57 69//57 152//57
f 75//72 154//72 158//72
f 69//73 70//73 68//73
f 162//74 81//74 79//74
f 68//75 67//75 76//75
f 78//76 80//76 79//76
f 67//77 82//77 78//77
f 87//78 85//78 84//78
f 99//79 91//79 95//79
f 96//80 97//80 85//80
f 85//81 89//81 88//81
f 90//82 93//82 92//82
f 91//83 94//83 95//83
f 86//84 93//84 87//84
f 88//85 95//85 94//85
f 87//86 91//86 98//86
f 99//87 97//87 98//87
f 100//88 103//88 102//88
f 111//89 113//89 114//89
f 112//90 103//90 101//90
f 104//91 114//91 101//91
f 109//92 106//92 108//92
f 110//93 107//93 111//93
f 109//94 102//94 103//94
f 104//95 111//95 105//95
f 113//96 109//96 103//96
f 114//97 112//97 101//97
f 115//98 127//98 118//98
f 126//99 129//99 130//99
f 119//100 130//100 116//100
f 124//101 121//101 123//101
f 125//102 122//102 126//102
f 124//103 117//103 118//103
f 119//104 126//104 120//104
f 129//105 124//105 118//105
f 147//106 146//106 148//106
f 148//107 149//107 140//107
f 138//108 136//108 137//108
f 135//109 140//109 149//109
f 145//110 142//110 146//110
f 144//111 141//111 143//111
f 149//107 131//107 138//107
f 142//107 132//107 131//107
f 147//112 140//112 139//112
f 132//113 143//113 136//113
f 135//114 138//114 137//114
f 148//107 142//107 133//107
f 161//115 164//115 162//115
f 165//116 157//116 166//116
f 163//117 155//117 165//117
f 159//118 152//118 160//118
f 158//119 155//119 156//119
f 151//120 157//120 153//120
f 157//121 154//121 153//121
f 150//122 160//122 164//122
f 152//123 153//123 154//123
f 150//124 151//124 159//124
f 161//125 163//125 165//125
f 150//126 165//126 166//126
f 7//1 11//1 94//1
f 94//2 11//2 5//2
f 4//135 3//135 1//135
f 1//136 2//136 13//136
f 88//4 5//4 1//4
f 16//137 6//137 12//137
f 12//138 8//138 15//138
f 14//139 15//139 13//139
f 3//7 9//7 92//7
f 3//8 86//8 84//8
f 2//140 1//140 5//140
f 5//141 6//141 16//141
f 10//142 8//142 7//142
f 11//143 7//143 8//143
f 10//144 9//144 3//144
f 5//145 11//145 12//145
f 90//14 92//14 9//14
f 4//146 13//146 15//146
f 15//147 8//147 10//147
f 16//148 15//148 14//148
f 110//17 27//17 23//17
f 21//18 27//18 110//18
f 20//149 18//149 17//149
f 100//20 17//20 21//20
f 28//150 22//150 31//150
f 31//151 30//151 24//151
f 20//152 30//152 29//152
f 108//23 25//23 19//23
f 100//24 102//24 19//24
f 21//153 17//153 18//153
f 18//154 31//154 22//154
f 23//155 24//155 26//155
f 24//156 23//156 27//156
f 19//157 25//157 26//157
f 21//158 22//158 28//158
f 108//30 106//30 23//30
f 26//159 24//159 30//159
f 31//160 18//160 29//160
f 121//33 125//33 42//33
f 119//34 36//34 42//34
f 32//161 34//161 35//161
f 35//162 44//162 33//162
f 115//36 32//36 36//36
f 43//163 37//163 47//163
f 47//164 46//164 39//164
f 123//38 121//38 38//38
f 123//39 40//39 34//39
f 32//40 115//40 117//40
f 36//165 32//165 33//165
f 33//162 47//162 37//162
f 38//166 39//166 41//166
f 39//167 38//167 42//167
f 34//168 40//168 41//168
f 36//169 37//169 43//169
f 46//170 44//170 35//170
f 35//171 41//171 39//171
f 60//47 143//47 141//47
f 135//48 137//48 54//48
f 64//172 65//172 63//172
f 66//50 50//50 65//50
f 55//173 54//173 53//173
f 135//52 52//52 56//52
f 52//174 66//174 57//174
f 136//54 143//54 60//54
f 59//175 58//175 62//175
f 58//176 59//176 61//176
f 64//57 62//57 145//57
f 66//50 55//50 48//50
f 59//50 50//50 48//50
f 48//177 49//177 61//177
f 57//178 65//178 64//178
f 56//57 64//57 147//57
f 49//179 51//179 53//179
f 53//180 60//180 61//180
f 141//60 145//60 62//60
f 55//181 66//181 52//181
f 136//54 53//54 54//54
f 65//50 50//50 59//50
f 79//54 80//54 163//54
f 81//182 67//182 78//182
f 75//63 158//63 156//63
f 152//57 69//57 77//57
f 80//54 73//54 156//54
f 74//183 72//183 82//183
f 72//184 73//184 80//184
f 69//185 68//185 76//185
f 72//186 74//186 75//186
f 68//187 70//187 74//187
f 77//69 81//69 164//69
f 71//188 75//188 74//188
f 77//189 76//189 67//189
f 154//57 71//57 69//57
f 75//72 71//72 154//72
f 69//190 71//190 70//190
f 162//74 164//74 81//74
f 68//191 83//191 67//191
f 78//192 82//192 80//192
f 67//193 83//193 82//193
f 84//194 86//194 87//194
f 87//195 96//195 85//195
f 95//196 89//196 99//196
f 99//86 98//86 91//86
f 96//197 98//197 97//197
f 88//198 84//198 85//198
f 85//195 99//195 89//195
f 90//199 91//199 93//199
f 91//200 90//200 94//200
f 86//201 92//201 93//201
f 88//202 89//202 95//202
f 98//203 96//203 87//203
f 87//204 93//204 91//204
f 99//205 85//205 97//205
f 100//206 101//206 103//206
f 114//207 105//207 111//207
f 111//208 107//208 113//208
f 112//209 113//209 103//209
f 101//210 100//210 104//210
f 104//211 105//211 114//211
f 109//212 107//212 106//212
f 110//213 106//213 107//213
f 109//214 108//214 102//214
f 104//215 110//215 111//215
f 113//216 107//216 109//216
f 114//217 113//217 112//217
f 118//218 117//218 115//218
f 115//219 116//219 127//219
f 130//220 120//220 126//220
f 126//221 122//221 129//221
f 116//222 115//222 119//222
f 119//223 120//223 130//223
f 124//224 122//224 121//224
f 125//225 121//225 122//225
f 124//226 123//226 117//226
f 119//227 125//227 126//227
f 118//228 127//228 129//228
f 129//229 122//229 124//229
f 147//230 145//230 146//230
f 148//107 133//107 149//107
f 138//231 134//231 136//231
f 135//232 139//232 140//232
f 145//233 141//233 142//233
f 144//234 142//234 141//234
f 149//107 133//107 131//107
f 131//107 133//107 142//107
f 142//107 144//107 132//107
f 147//235 148//235 140//235
f 136//236 134//236 132//236
f 132//237 144//237 143//237
f 135//238 149//238 138//238
f 148//107 146//107 142//107
f 161//239 150//239 164//239
f 165//240 155//240 157//240
f 163//241 156//241 155//241
f 159//242 151//242 152//242
f 158//243 157//243 155//243
f 151//244 166//244 157//244
f 157//245 158//245 154//245
f 150//246 159//246 160//246
f 152//247 151//247 153//247
f 150//248 166//248 151//248
f 161//249 162//249 163//249
f 150//250 161//250 165//250
g Bricks_Cube.676_Highlights.005
usemtl Highlights.005
f 44//127 45//127 33//127
f 47//128 45//128 46//128
f 49//129 48//129 51//129
f 48//130 55//130 51//130
f 128//131 127//131 116//131
f 130//132 128//132 116//132
f 132//133 134//133 131//133
f 131//134 134//134 138//134
f 44//251 46//251 45//251
f 47//252 33//252 45//252
f 128//253 129//253 127//253
f 130//254 129//254 128//254
