# Blender 4.1.1
# www.blender.org
mtllib Dirt_Collision.mtl
o Dirt_Collision
v 1.000000 -1.000000 1.000000
v 1.000000 -1.000000 -1.000000
v 1.000000 1.000000 1.000000
v 1.000000 1.000000 -1.000000
v -1.000000 -1.000000 1.000000
v -1.000000 -1.000000 -1.000000
v -1.000000 1.000000 1.000000
v -1.000000 1.000000 -1.000000
vn 1.0000 -0.0000 -0.0000
vn -0.0000 1.0000 -0.0000
vn -1.0000 -0.0000 -0.0000
vn -0.0000 -1.0000 -0.0000
vn -0.0000 -0.0000 1.0000
vn -0.0000 -0.0000 -1.0000
vt 0.471272 0.528728
vt 0.528728 0.471272
vt 0.471272 0.471272
vt 0.528728 0.528728
s 0
usemtl Dirt
f 2/1/1 3/2/1 1/3/1
f 4/1/2 7/2/2 3/3/2
f 8/4/3 5/3/3 7/2/3
f 6/4/4 1/3/4 5/2/4
f 7/4/5 1/3/5 3/1/5
f 4/1/6 6/2/6 8/4/6
f 2/1/1 4/4/1 3/2/1
f 4/1/2 8/4/2 7/2/2
f 8/4/3 6/1/3 5/3/3
f 6/4/4 2/1/4 1/3/4
f 7/4/5 5/2/5 1/3/5
f 4/1/6 2/3/6 6/2/6
o Moonstone
v 0.100000 -0.031000 -3.082186
v 0.100000 -0.031000 -3.182186
v 0.100000 0.169000 -3.082186
v 0.100000 0.169000 -3.182186
v -0.100000 -0.031000 -3.082186
v -0.100000 -0.031000 -3.182186
v -0.100000 0.169000 -3.082186
v -0.100000 0.169000 -3.182186
vn 1.0000 -0.0000 -0.0000
vn -0.0000 1.0000 -0.0000
vn -1.0000 -0.0000 -0.0000
vn -0.0000 -1.0000 -0.0000
vn -0.0000 -0.0000 1.0000
vn -0.0000 -0.0000 -1.0000
vt 0.416667 0.583333
vt 0.583333 0.416667
vt 0.416667 0.416667
vt 0.583333 0.583333
s 0
usemtl Spectrolite_Rainbow_Moonstone
f 10/5/7 11/6/7 9/7/7
f 12/5/8 15/6/8 11/7/8
f 16/8/9 13/7/9 15/6/9
f 14/8/10 9/7/10 13/6/10
f 15/8/11 9/7/11 11/5/11
f 12/5/12 14/6/12 16/8/12
f 10/5/7 12/8/7 11/6/7
f 12/5/8 16/8/8 15/6/8
f 16/8/9 14/5/9 13/7/9
f 14/8/10 10/5/10 9/7/10
f 15/8/11 13/6/11 9/7/11
f 12/5/12 10/7/12 14/6/12
