# Blender 4.1.1
# www.blender.org
mtllib Emerald.mtl
o Emerald
v 1.000000 -1.000000 1.000000
v 1.000000 -1.000000 -1.000000
v 1.000000 1.000000 1.000000
v 1.000000 1.000000 -1.000000
v -1.000000 -1.000000 1.000000
v -1.000000 -1.000000 -1.000000
v -1.000000 1.000000 1.000000
v -1.000000 1.000000 -1.000000
vn 1.0000 -0.0000 -0.0000
vn -0.0000 1.0000 -0.0000
vn -1.0000 -0.0000 -0.0000
vn -0.0000 -1.0000 -0.0000
vn -0.0000 -0.0000 1.0000
vn -0.0000 -0.0000 -1.0000
vt 0.416667 0.583333
vt 0.583333 0.416667
vt 0.416667 0.416667
vt 0.583333 0.583333
s 0
g off
g Emerald_Procedural_Emerald_Ore
usemtl Procedural_Emerald_Ore
f 2/1/1 3/2/1 1/3/1
f 4/1/2 7/2/2 3/3/2
f 8/4/3 5/3/3 7/2/3
f 6/4/4 1/3/4 5/2/4
f 7/4/5 1/3/5 3/1/5
f 4/1/6 6/2/6 8/4/6
f 2/1/1 4/4/1 3/2/1
f 4/1/2 8/4/2 7/2/2
f 8/4/3 6/1/3 5/3/3
f 6/4/4 2/1/4 1/3/4
f 7/4/5 5/2/5 1/3/5
f 4/1/6 2/3/6 6/2/6
