# Blender 4.1.1
# www.blender.org
mtllib Rock_2_Cube.mtl
o Rock_2_Cube.002
v 0.495281 0.183629 0.034158
v -0.136535 0.190592 0.101958
v 0.099325 0.357765 0.009479
v 0.405449 0.256762 0.537155
v -0.109486 0.240137 0.399210
v 0.093785 0.323926 0.537844
v 0.321688 0.402090 0.475271
v 0.062556 0.467595 0.506927
v -0.070411 0.376915 0.083084
v 0.093831 0.567032 0.010523
v 0.059887 0.520840 0.220237
v -0.071687 0.376278 0.154650
v -0.127136 0.210729 0.175899
v 0.471900 0.214729 0.253504
v 0.341576 0.442773 0.388283
v 0.429436 0.237443 0.359441
v 0.071917 0.513400 0.409208
v -0.116661 0.230876 0.261338
v -0.063826 0.378897 0.287147
v 0.275155 0.494730 0.025041
v 0.363321 0.386251 0.042457
v 0.360849 0.387696 0.255093
v 0.288244 0.488744 0.250716
v 0.184485 0.410256 0.538165
v 0.213111 0.322897 0.561020
v 0.277807 0.503013 0.312528
v 0.331632 0.422432 0.431777
v 0.416584 0.276250 0.449127
v 0.063017 0.490244 0.462338
v 0.231146 0.456635 0.425346
v -0.065264 0.372601 0.376060
v -0.012099 -0.494668 -0.018356
v 0.111853 -0.408624 0.638085
v 0.421049 -0.130394 0.629500
v 0.332155 -0.436404 0.566470
v 0.598085 -0.209528 0.600637
v 0.622453 -0.039506 0.034496
v 0.700957 -0.364325 -0.034636
v 0.668925 -0.273847 0.232338
v 0.619625 -0.031022 0.127474
v 0.029044 -0.473228 0.268618
v 0.363743 -0.496436 0.457954
v 0.080874 -0.435793 0.406356
v 0.643602 -0.263331 0.478098
v 0.610589 -0.029000 0.300465
v 0.485308 -0.499545 -0.013219
v 0.302521 -0.508574 0.004078
v 0.296637 -0.487295 0.280700
v 0.459106 -0.487842 0.280472
v 0.442920 -0.291827 0.642192
v 0.327727 -0.253512 0.665498
v 0.479459 -0.481921 0.361644
v 0.347949 -0.466420 0.512212
v 0.127783 -0.443390 0.525875
v 0.623614 -0.231383 0.544689
v 0.461190 -0.386874 0.501918
v 0.601146 -0.014429 0.415494
v -0.071451 0.070664 -0.054828
v -0.091944 0.138370 0.513381
v -0.257275 0.059522 -0.044020
v -0.287071 -0.274229 -0.082257
v -0.352911 0.077031 0.103362
v -0.304244 -0.355115 0.213969
v -0.178579 0.066283 0.473479
v -0.261841 -0.384110 0.319155
v 0.046604 -0.116095 -0.084888
v -0.030623 -0.148729 0.628351
v -0.271863 -0.102845 -0.062435
v -0.338988 -0.130453 0.161262
v -0.210764 -0.203622 0.495106
v -0.042601 0.025025 -0.062174
v -0.349509 0.026327 0.117512
v -0.260840 0.019844 -0.048520
v -0.186445 0.000325 0.478765
v -0.041655 0.058022 0.539387
v 0.599641 -0.110345 0.506515
v 0.425312 0.056604 0.492209
v -0.279467 -0.188537 -0.072346
v 0.025126 -0.292261 0.517354
v -0.236303 -0.293866 0.407131
v -0.321616 -0.242784 0.187616
v 0.473401 -0.207745 -0.092630
v 0.358068 0.192250 0.718894
v 0.208391 0.243716 0.737466
v 0.153404 -0.359845 0.801732
v 0.370208 -0.109035 0.790757
v 0.325138 -0.247260 0.834591
v 0.018717 -0.123304 0.789863
v 0.010132 0.037590 0.720632
v 0.373526 0.036486 0.683917
v 0.181495 -0.298227 0.979784
v 0.320434 -0.077886 0.958549
v 0.305045 -0.217230 1.003424
v 0.067561 -0.088151 0.957906
v 0.061385 0.027601 0.908098
v 0.322822 0.026807 0.881685
v 0.011112 -0.476501 -0.058350
v 0.612505 -0.045124 -0.008259
v 0.686907 -0.352970 -0.073779
v 0.482526 -0.481123 -0.053482
v 0.309291 -0.489680 -0.037088
v 0.491978 0.166351 -0.008580
v 0.066747 -0.117710 -0.121405
vn -0.1676 0.1725 0.9707
vn 0.2756 0.5067 0.8169
vn -0.7138 -0.0044 0.7004
vn 0.2215 -0.4602 0.8598
vn -0.6746 0.7197 0.1645
vn -0.9935 -0.0725 0.0881
vn -0.7041 0.6547 0.2750
vn 0.0473 -0.2144 0.9756
vn 0.0082 0.9987 0.0510
vn 0.3367 0.1905 -0.9222
vn 0.0489 -0.3826 -0.9226
vn -0.7268 0.6817 0.0838
vn -0.7460 0.5968 0.2954
vn -0.7383 0.6316 0.2365
vn 0.7894 0.6085 -0.0804
vn 0.8447 0.5352 -0.0025
vn 0.8063 0.5914 -0.0020
vn -0.3949 0.0289 -0.9183
vn -0.1454 0.1025 -0.9841
vn -0.4448 0.5968 -0.6679
vn 0.1658 0.9841 0.0641
vn 0.2384 0.9618 0.1342
vn 0.3405 0.9051 0.2545
vn 0.2615 0.8509 0.4556
vn 0.2602 0.8504 0.4572
vn 0.8848 0.4596 0.0764
vn 0.8371 0.5389 0.0938
vn -0.9447 0.3273 0.0203
vn -0.9447 0.3263 0.0316
vn -0.9442 0.3274 0.0369
vn -0.7448 0.6672 0.0075
vn -0.7436 0.6674 0.0404
vn -0.7521 0.6586 0.0233
vn 0.8148 0.5797 -0.0045
vn 0.8381 0.5453 0.0120
vn -0.7346 0.6770 0.0450
vn -0.7413 0.6712 0.0077
vn 0.2741 0.8570 0.4363
vn 0.2690 0.8484 0.4559
vn 0.7779 0.6277 -0.0285
vn -0.9443 0.3278 0.0286
vn -0.9469 0.3216 -0.0029
vn -0.9412 0.3368 0.0279
vn 0.1267 0.9860 -0.1087
vn 0.1509 0.9841 -0.0941
vn 0.2636 0.8624 0.4322
vn 0.2589 0.8510 0.4569
vn -0.9470 0.3208 0.0141
vn -0.7291 0.6747 0.1152
vn -0.1119 0.0036 -0.9937
vn 0.2257 0.1669 -0.9598
vn 0.1297 0.1433 -0.9812
vn 0.8641 0.4853 0.1336
vn 0.8552 0.5162 0.0459
vn 0.7680 0.4946 0.4069
vn 0.7786 0.5116 0.3633
vn 0.7999 0.5566 0.2244
vn 0.9104 0.2772 0.3071
vn 0.9361 0.2465 0.2511
vn 0.9750 0.1971 0.1028
vn 0.0330 -0.9994 -0.0082
vn -0.0614 -0.9959 0.0666
vn 0.0066 -0.9976 0.0695
vn 0.3332 0.3476 0.8764
vn 0.2180 0.1058 0.9702
vn 0.3348 0.4462 0.8300
vn -0.0033 -0.9086 -0.4176
vn -0.0103 -0.9082 -0.4185
vn -0.0016 -0.9087 -0.4174
vn 0.6975 -0.7031 0.1380
vn 0.6347 -0.7439 0.2092
vn 0.5249 -0.7850 0.3290
vn 0.5206 -0.6751 0.5227
vn 0.5209 -0.6737 0.5243
vn -0.1487 -0.9787 0.1416
vn -0.0571 -0.9850 0.1626
vn 0.8323 0.5297 0.1635
vn 0.8266 0.5628 -0.0034
vn 0.8476 0.5288 0.0434
vn 0.9764 0.2147 0.0250
vn 0.9747 0.2160 0.0579
vn 0.9731 0.2267 0.0399
vn -0.0077 -0.9978 0.0665
vn -0.0498 -0.9954 0.0815
vn 0.9770 0.2034 0.0635
vn 0.9775 0.2095 0.0256
vn 0.5188 -0.6903 0.5044
vn 0.5141 -0.6797 0.5232
vn 0.0535 -0.9976 0.0445
vn 0.8630 0.5051 0.0119
vn 0.8660 0.5000 0.0109
vn 0.8687 0.4951 -0.0188
vn 0.7278 -0.6849 -0.0356
vn 0.7116 -0.7023 -0.0203
vn 0.5294 -0.6852 0.5003
vn 0.5221 -0.6729 0.5240
vn 0.8488 0.5123 0.1311
vn 0.9696 0.2053 0.1335
vn -0.7782 0.4393 -0.4487
vn 0.2064 0.9015 -0.3804
vn -0.7258 0.5414 -0.4243
vn 0.5108 0.5590 0.6531
vn 0.4895 0.5253 0.6960
vn 0.4480 0.5828 0.6780
vn -0.1177 -0.9728 0.1995
vn -0.0845 -0.9899 0.1139
vn -0.0630 -0.8809 0.4690
vn -0.0540 -0.9026 0.4271
vn -0.0254 -0.9559 0.2926
vn -0.4264 0.5969 -0.6796
vn -0.2825 0.8181 -0.5009
vn -0.4322 0.8188 -0.3777
vn -0.8578 0.1057 -0.5030
vn -0.8694 -0.1457 -0.4722
vn -0.8235 0.1364 -0.5506
vn -0.9048 0.0614 0.4213
vn -0.8991 0.1341 0.4167
vn -0.9025 0.0586 0.4268
vn -0.0066 -0.0036 -1.0000
vn 0.0104 -0.0385 -0.9992
vn -0.0648 0.1203 -0.9906
vn -0.4586 -0.8876 -0.0435
vn -0.4267 -0.8980 -0.1071
vn -0.5705 -0.7833 -0.2469
vn -0.4575 0.1983 0.8668
vn -0.4274 0.0915 0.8994
vn -0.5051 0.1942 0.8409
vn -0.2852 -0.9361 0.2057
vn -0.2998 -0.9529 -0.0451
vn -0.2991 -0.6488 0.6997
vn -0.3047 -0.6320 0.7126
vn -0.2893 -0.6304 0.7204
vn -0.0649 0.1184 -0.9908
vn -0.0648 0.1193 -0.9907
vn -0.0648 0.1182 -0.9909
vn -0.9358 -0.0705 0.3454
vn -0.9220 0.0280 0.3862
vn -0.9345 -0.0641 0.3501
vn -0.9774 0.0667 -0.2008
vn -0.9585 -0.1410 -0.2476
vn -0.9382 0.0626 -0.3403
vn -0.0648 0.1185 -0.9908
vn -0.0647 0.1182 -0.9909
vn -0.5561 0.2223 0.8008
vn -0.6156 0.1356 0.7763
vn -0.9064 0.1287 0.4023
vn -0.9074 -0.1167 -0.4037
vn -0.6148 0.5395 0.5753
vn -0.4105 0.3125 0.8566
vn -0.3151 0.2129 0.9249
vn -0.2919 0.2007 0.9352
vn -0.2497 0.1327 0.9592
vn -0.1888 0.1018 0.9767
vn 0.9914 0.0620 0.1152
vn 0.9899 0.0642 0.1266
vn 0.9898 0.0643 0.1271
vn 0.9879 0.0667 0.1397
vn -0.9904 0.0415 -0.1316
vn -0.9775 -0.1553 -0.1429
vn -0.9343 -0.0698 0.3496
vn -0.9314 -0.0598 0.3590
vn -0.2876 -0.6466 0.7065
vn -0.2795 -0.6285 0.7258
vn -0.8012 -0.5284 0.2809
vn -0.8198 -0.5474 0.1683
vn -0.8472 -0.5025 0.1724
vn -0.8444 -0.4941 0.2070
vn -0.9289 -0.2263 0.2932
vn -0.8331 -0.4537 0.3162
vn -0.9297 -0.2020 0.3081
vn 0.7802 0.4971 0.3798
vn 0.9638 0.0363 0.2642
vn 0.3423 0.8538 0.3923
vn 0.7488 0.5386 0.3864
vn -0.9587 0.0677 0.2761
vn -0.9570 0.0700 0.2813
vn 0.9463 -0.0903 0.3103
vn 0.9474 0.1751 0.2680
vn 0.9637 -0.0833 0.2536
vn 0.7460 -0.6516 0.1373
vn 0.8032 -0.5763 0.1510
vn 0.7558 -0.6429 0.1243
vn 0.5446 -0.8297 0.1229
vn 0.5726 -0.8141 0.0973
vn 0.9726 -0.0137 0.2319
vn 0.8413 -0.5061 0.1901
vn -0.8397 -0.4477 0.3073
vn -0.9271 -0.2065 0.3127
vn 0.9537 0.1636 0.2525
vn -0.9618 0.0633 0.2663
vn 0.5079 -0.8357 0.2091
vn -0.0995 0.1630 0.9816
vn -0.0544 0.2976 0.9531
vn -0.1881 0.0003 0.9821
vn 0.0123 0.4558 0.8900
vn 0.0224 0.4337 0.9008
vn 0.0830 0.5885 0.8042
vn -0.2373 0.4966 -0.8349
vn 0.0963 0.1949 -0.9761
vn 0.8499 -0.3390 -0.4034
vn 0.2592 -0.8714 -0.4166
vn 0.8652 -0.3039 -0.3987
vn 0.8845 0.3895 -0.2570
vn 0.2063 0.9015 -0.3804
vn 0.3185 0.8700 -0.3764
vn 0.1075 0.2239 -0.9687
vn 0.0303 -0.1776 -0.9836
vn 0.0614 -0.0413 -0.9973
vn 0.0876 0.0784 -0.9931
vn 0.1157 0.2123 -0.9703
vn -0.8736 0.0504 -0.4841
vn 0.8920 0.3723 -0.2565
vn 0.2161 -0.8821 -0.4185
vn -0.1855 0.1914 0.9638
vn 0.4071 0.3537 0.8421
vn -0.6210 0.3315 0.7103
vn 0.0197 -0.4757 0.8794
vn -0.4503 0.8608 0.2371
vn -0.9223 0.3859 0.0221
vn -0.9924 0.0466 0.1135
vn 0.0985 -0.1747 0.9797
vn 0.2594 0.2606 -0.9300
vn 0.0007 -0.1277 -0.9918
vn -0.0938 -0.0081 -0.9956
vn -0.9481 0.3178 0.0072
vn 0.2891 0.8523 0.4359
vn 0.0667 0.9972 0.0350
vn 0.0235 -0.1398 -0.9899
vn 0.2313 0.1074 0.9669
vn 0.5061 -0.6997 0.5043
vn 0.7672 -0.6326 0.1061
vn 0.5081 0.5021 0.6997
vn -0.0036 0.3336 -0.9427
vn 0.0797 -0.1845 -0.9796
vn -0.4326 0.0210 0.9013
vn -0.2229 -0.9162 0.3329
vn -0.3108 -0.6540 0.6897
vn -0.9285 0.0509 0.3678
vn -0.4521 0.3354 0.8265
vn -0.9788 -0.1760 -0.1048
vn 0.9448 0.1797 0.2741
vt 0.123275 0.169803
vt 0.122182 0.152700
vt 0.137145 0.158923
vt 0.116216 0.132646
vt 0.110240 0.156685
vt 0.091052 0.131081
vt 0.155094 0.176368
vt 0.455914 0.721692
vt 0.462837 0.751072
vt 0.424745 0.735605
vt 0.194889 0.203544
vt 0.137011 0.224399
vt 0.129253 0.208781
vt 0.183458 0.200133
vt 0.149644 0.195496
vt 0.114682 0.214157
vt 0.087816 0.168567
vt 0.053319 0.149330
vt 0.077644 0.151940
vt 0.083675 0.207837
vt 0.041109 0.177233
vt 0.373595 0.472115
vt 0.408573 0.478172
vt 0.358110 0.503330
vt 0.412782 0.439161
vt 0.458334 0.483373
vt 0.476391 0.526424
vt 0.142419 0.155800
vt 0.141359 0.123169
vt 0.131233 0.104559
vt 0.146926 0.115898
vt 0.359313 0.597234
vt 0.353395 0.569847
vt 0.387235 0.598632
vt 0.171114 0.142518
vt 0.173891 0.096794
vt 0.196266 0.123578
vt 0.131189 0.137071
vt 0.120615 0.127403
vt 0.099552 0.105142
vt 0.104509 0.088151
vt 0.167769 0.173851
vt 0.170515 0.196904
vt 0.197166 0.169159
vt 0.153201 0.081254
vt 0.119410 0.058318
vt 0.186888 0.171365
vt 0.148290 0.151387
vt 0.125565 0.122707
vt 0.325197 0.583172
vt 0.331944 0.535867
vt 0.351255 0.505936
vt 0.098505 0.119643
vt 0.037511 0.095174
vt 0.018931 0.090865
vt 0.056571 0.088916
vt 0.475815 0.692672
vt 0.450227 0.679201
vt 0.474794 0.680431
vt 0.028706 0.130502
vt 0.002208 0.122908
vt 0.018356 0.100946
vt 0.454960 0.638551
vt 0.413579 0.625436
vt 0.456788 0.631945
vt 0.519880 0.680837
vt 0.482395 0.638465
vt 0.520004 0.637923
vt 0.477603 0.716511
vt 0.457277 0.712911
vt 0.415783 0.699096
vt 0.410504 0.675890
vt 0.064217 0.072477
vt 0.085163 0.037433
vt 0.037580 0.044065
vt 0.047225 0.001953
vt 0.409554 0.631745
vt 0.078448 0.049875
vt 0.509602 0.728932
vt 0.478383 0.741378
vt 0.511019 0.717359
vt 0.459067 0.704249
vt 0.019507 0.078692
vt 0.423295 0.544482
vt 0.423315 0.538393
vt 0.064621 0.117869
vt 0.425267 0.717251
vt 0.419529 0.595105
vt 0.414171 0.619699
vt 0.424573 0.593955
vt 0.192488 0.247711
vt 0.197166 0.240983
vt 0.465586 0.584075
vt 0.453116 0.586701
vt 0.358242 0.665362
vt 0.358242 0.619527
vt 0.133171 0.233410
vt 0.364189 0.681790
vt 0.398788 0.723204
vt 0.360775 0.719706
vt 0.362702 0.700770
vt 0.409322 0.566054
vt 0.441126 0.589872
vt 0.131677 0.279529
vt 0.178297 0.268211
vt 0.168430 0.282984
vt 0.446996 0.624979
vt 0.404790 0.573075
vt 0.093002 0.240800
vt 0.122329 0.262283
vt 0.422419 0.621373
vt 0.464359 0.626379
vt 0.140876 0.296761
vt 0.158694 0.297769
vt 0.382074 0.746256
vt 0.428116 0.762060
vt 0.388873 0.770756
vt 0.026728 0.158287
vt 0.005275 0.140885
vt 0.005166 0.164951
vt 0.025293 0.183692
vt 0.005509 0.191416
vt 0.429631 0.790499
vt 0.394724 0.796756
vt 0.067915 0.232424
vt 0.054544 0.209777
vt 0.456571 0.774860
vt 0.039252 0.220232
vt 0.001953 0.214343
vt 0.483352 0.632024
vt 0.519386 0.631459
vt 0.367457 0.469086
vt 0.481644 0.531792
vt 0.409095 0.433825
vt 0.444895 0.459715
vt 0.323053 0.554585
vt 0.506664 0.738472
vt 0.481644 0.628469
vt 0.450033 0.799552
s 0
g off
g Rock_2_Cube.002_Rock.004
usemtl Rock.004
f 6/1/1 24/2/1 8/3/1
f 7/4/2 25/5/2 4/6/2
f 31/7/3 6/1/3 8/3/3
f 35/8/4 51/9/4 33/10/4
f 2/11/5 64/12/5 59/13/5
f 13/14/6 59/13/6 5/15/6
f 75/16/7 84/17/7 25/5/7
f 84/17/8 90/18/8 83/19/8
f 89/20/9 96/21/9 90/18/9
f 98/22/10 82/23/10 102/24/10
f 99/25/11 101/26/11 97/27/11
s 1
f 31/7/12 8/3/13 29/28/14
f 26/29/15 22/30/16 23/31/17
f 9/32/18 3/33/19 2/34/20
f 11/35/21 20/36/22 10/37/23
f 30/38/24 7/4/25 27/39/25
f 22/30/16 16/40/26 14/41/27
f 5/15/28 19/42/29 18/43/30
f 9/44/31 11/35/32 10/37/33
f 21/45/34 14/41/27 1/46/35
f 19/42/36 11/35/32 12/47/37
f 29/28/38 24/2/39 30/38/24
f 23/31/17 21/45/34 20/36/40
f 13/14/41 9/44/42 2/11/43
f 11/35/21 26/29/44 23/31/45
f 17/48/46 30/38/24 26/29/47
f 18/43/30 12/47/48 13/14/41
f 30/38/24 15/49/25 26/29/47
f 31/7/12 17/48/49 19/42/36
f 10/50/50 21/51/51 1/52/52
f 28/53/53 15/49/54 27/39/55
f 28/53/53 7/4/56 4/6/57
f 76/54/58 55/55/59 57/56/60
f 52/57/61 48/58/62 49/59/63
f 34/60/64 50/61/65 36/62/66
f 47/63/67 97/64/68 101/65/69
f 39/66/70 46/67/71 38/68/72
f 56/69/73 35/8/74 53/70/74
f 48/58/62 43/71/75 41/72/76
f 16/40/77 57/56/78 45/73/79
f 37/74/80 39/75/81 38/76/82
f 47/63/83 41/72/76 32/77/84
f 45/73/85 39/75/81 40/78/86
f 55/79/87 50/80/88 56/69/73
f 49/59/63 47/63/83 46/67/89
f 1/46/90 40/78/91 37/74/92
f 39/66/70 52/57/93 49/59/94
f 44/81/95 56/69/73 52/57/96
f 14/41/97 45/73/79 40/78/91
f 56/69/73 42/82/74 52/57/96
f 57/56/60 44/83/98 45/73/85
f 66/84/99 102/24/100 103/85/101
f 57/56/102 77/86/103 76/54/104
f 54/87/105 42/82/106 53/70/107
f 54/87/105 35/8/108 33/10/109
f 2/34/110 60/88/111 62/89/112
f 73/90/113 62/89/114 60/88/115
f 72/91/116 64/12/117 62/92/118
f 66/84/119 61/93/120 78/94/121
f 32/77/122 63/95/123 61/96/124
f 75/16/125 64/12/126 74/97/127
f 41/72/128 65/98/129 63/95/123
f 79/99/130 70/100/131 80/101/132
f 71/102/133 68/103/134 73/90/135
f 80/104/136 69/105/137 81/106/138
f 78/94/139 69/107/140 68/103/141
f 58/108/142 73/90/135 60/88/143
f 67/109/144 74/97/127 70/110/145
f 69/105/137 74/97/146 72/91/116
f 68/103/141 72/111/147 73/90/113
f 5/15/148 59/13/149 6/1/150
f 6/1/151 75/16/152 25/5/153
f 76/54/104 34/60/64 36/62/66
f 16/40/154 28/53/155 77/86/156
f 4/6/157 77/86/156 28/53/155
f 61/93/158 81/112/159 78/94/139
f 65/113/160 81/106/138 63/114/161
f 43/71/162 80/101/132 65/98/163
f 66/84/119 78/94/121 68/103/134
f 43/71/164 54/87/165 79/99/166
f 33/10/167 79/99/166 54/87/165
f 67/115/168 85/116/169 88/117/170
f 4/6/171 90/18/172 77/86/172
f 25/5/173 83/19/174 4/6/171
f 67/109/168 89/20/175 75/16/176
f 34/60/177 90/18/178 86/118/179
f 51/119/180 86/118/179 87/120/181
f 51/9/182 85/116/183 33/10/184
f 87/120/181 92/121/185 93/122/186
f 88/117/170 91/123/187 94/124/188
f 86/118/179 96/21/189 92/121/185
f 88/125/170 95/126/190 89/20/175
f 87/127/181 91/123/191 85/116/183
f 93/122/192 94/128/193 91/129/194
f 95/126/195 92/121/196 96/21/197
f 3/33/19 58/108/198 2/34/20
f 3/33/19 71/102/199 58/108/198
f 38/68/200 100/130/201 99/131/202
f 37/132/203 102/24/204 1/52/205
f 71/102/199 1/52/52 66/84/206
f 97/27/207 103/85/208 82/23/209
f 82/23/209 103/85/208 102/24/210
f 66/84/99 97/27/211 32/133/211
f 38/134/200 98/22/212 37/132/203
f 46/67/213 101/65/69 100/130/201
s 0
f 6/1/214 25/5/214 24/2/214
f 7/4/215 24/2/215 25/5/215
f 31/7/216 5/15/216 6/1/216
f 35/8/217 50/80/217 51/9/217
f 2/11/218 62/92/218 64/12/218
f 5/15/219 18/43/219 13/14/219
f 13/14/220 2/11/220 59/13/220
f 75/16/7 89/20/7 84/17/7
f 84/17/221 89/20/221 90/18/221
f 89/20/9 95/126/9 96/21/9
f 98/22/222 99/25/222 82/23/222
f 97/27/223 82/23/223 99/25/223
f 99/25/224 100/135/224 101/26/224
s 1
f 26/29/15 15/49/54 22/30/16
f 9/32/18 10/50/50 3/33/19
f 11/35/21 23/31/45 20/36/22
f 30/38/24 24/2/39 7/4/25
f 22/30/16 15/49/54 16/40/26
f 5/15/28 31/7/225 19/42/29
f 9/44/31 12/47/37 11/35/32
f 21/45/34 22/30/16 14/41/27
f 19/42/36 17/48/49 11/35/32
f 29/28/38 8/3/226 24/2/39
f 23/31/17 22/30/16 21/45/34
f 13/14/41 12/47/48 9/44/42
f 11/35/21 17/48/227 26/29/44
f 17/48/46 29/28/38 30/38/24
f 18/43/30 19/42/29 12/47/48
f 30/38/24 27/39/25 15/49/25
f 31/7/12 29/28/14 17/48/49
f 1/52/52 3/33/19 10/50/50
f 10/50/50 20/136/228 21/51/51
f 28/53/53 16/40/26 15/49/54
f 28/53/53 27/39/55 7/4/56
f 76/54/58 36/62/58 55/55/59
f 52/57/61 42/82/106 48/58/62
f 34/60/64 51/119/229 50/61/65
f 47/63/67 32/77/68 97/64/68
f 39/66/70 49/59/94 46/67/71
f 56/69/73 50/80/88 35/8/74
f 48/58/62 42/82/106 43/71/75
f 37/74/80 40/78/86 39/75/81
f 47/63/83 48/58/62 41/72/76
f 45/73/85 44/83/98 39/75/81
f 55/79/87 36/137/230 50/80/88
f 49/59/63 48/58/62 47/63/83
f 1/46/90 14/41/97 40/78/91
f 39/66/70 44/81/231 52/57/93
f 44/81/95 55/79/87 56/69/73
f 14/41/97 16/40/77 45/73/79
f 56/69/73 53/70/74 42/82/74
f 57/56/60 55/55/59 44/83/98
f 66/84/99 1/52/205 102/24/100
f 57/56/102 16/40/232 77/86/103
f 54/87/105 43/71/75 42/82/106
f 54/87/105 53/70/107 35/8/108
f 2/34/110 58/108/233 60/88/111
f 73/90/113 72/111/147 62/89/114
f 72/91/116 74/97/146 64/12/117
f 66/84/119 32/133/234 61/93/120
f 32/77/122 41/72/128 63/95/123
f 75/16/125 59/13/235 64/12/126
f 41/72/128 43/71/236 65/98/129
f 79/99/130 67/115/237 70/100/131
f 71/102/133 66/84/119 68/103/134
f 80/104/136 70/110/238 69/105/137
f 78/94/139 81/112/159 69/107/140
f 58/108/142 71/102/133 73/90/135
f 67/109/144 75/16/125 74/97/127
f 69/105/137 70/110/238 74/97/146
f 68/103/141 69/107/140 72/111/147
f 6/1/151 59/13/239 75/16/152
f 76/54/104 77/86/103 34/60/64
f 61/93/158 63/138/240 81/112/159
f 65/113/160 80/104/136 81/106/138
f 43/71/162 79/99/130 80/101/132
f 33/10/167 67/115/168 79/99/166
f 67/115/168 33/10/167 85/116/169
f 4/6/171 83/19/174 90/18/172
f 25/5/173 84/17/173 83/19/174
f 67/109/168 88/125/170 89/20/175
f 34/60/177 77/86/241 90/18/178
f 51/119/180 34/60/177 86/118/179
f 51/9/182 87/127/181 85/116/183
f 87/120/181 86/118/179 92/121/185
f 88/117/170 85/116/169 91/123/187
f 86/118/179 90/18/178 96/21/189
f 88/125/170 94/128/188 95/126/190
f 87/127/181 93/139/186 91/123/191
f 93/122/192 92/121/196 94/128/193
f 95/126/195 94/128/193 92/121/196
f 3/33/19 1/52/52 71/102/199
f 38/68/200 46/67/213 100/130/201
f 37/132/203 98/22/212 102/24/204
f 66/84/99 103/85/101 97/27/211
f 38/134/200 99/25/202 98/22/212
f 46/67/213 47/63/67 101/65/69
