# Blender 4.1.1
# www.blender.org
mtllib Torch_Cylinder.mtl
o Torch_Cylinder.042
v -0.012359 -0.160661 -0.021406
v 0.038064 0.270785 0.000000
v -0.024718 -0.160661 0.000000
v 0.019032 0.270785 0.032965
v -0.012359 -0.160661 0.021406
v -0.019032 0.270785 0.032965
v 0.012359 -0.160661 -0.021406
v -0.038064 0.270785 0.000000
v 0.012359 -0.160661 0.021406
v -0.019032 0.270785 -0.032965
v 0.024718 -0.160661 0.000000
v 0.019032 0.270785 -0.032965
v 0.031604 -0.270785 0.000000
v 0.038064 -0.230985 0.000000
v 0.015802 -0.270785 0.027370
v 0.019032 -0.230985 0.032965
v -0.015802 -0.270785 0.027370
v -0.019032 -0.230985 0.032965
v -0.031604 -0.270785 0.000000
v -0.038064 -0.230985 0.000000
v -0.015802 -0.270785 -0.027370
v -0.019032 -0.230985 -0.032965
v 0.015802 -0.270785 -0.027370
v 0.019032 -0.230985 -0.032965
v -0.009865 -0.118742 -0.017086
v -0.019729 -0.118742 0.000000
v -0.009865 -0.118742 0.017086
v 0.009865 -0.118742 0.017086
v 0.019729 -0.118742 0.000000
v 0.009865 -0.118742 -0.017086
v 0.039810 0.292543 0.068954
v 0.079621 0.292543 0.000000
v -0.039810 0.292543 0.068954
v -0.079621 0.292543 0.000000
v -0.039810 0.292543 -0.068954
v 0.039810 0.292543 -0.068954
v 0.039810 0.319740 0.068954
v 0.079621 0.319740 0.000000
v -0.039810 0.319740 0.068954
v -0.079621 0.319740 0.000000
v -0.039810 0.319740 -0.068954
v 0.039810 0.319740 -0.068954
v 0.051990 0.319740 0.090050
v 0.103981 0.319740 0.000000
v -0.051990 0.319740 0.090050
v -0.103981 0.319740 0.000000
v -0.051990 0.319740 -0.090050
v 0.051990 0.319740 -0.090050
v 0.069569 0.393172 0.120496
v 0.139137 0.393172 0.000000
v -0.069569 0.393172 0.120496
v -0.139137 0.393172 0.000000
v -0.069569 0.393172 -0.120496
v 0.069569 0.393172 -0.120496
v 0.052548 0.393172 0.091015
v 0.105095 0.393172 0.000000
v -0.052548 0.393172 0.091015
v -0.105095 0.393172 0.000000
v -0.052547 0.393172 -0.091015
v 0.052547 0.393172 -0.091015
v 0.044692 0.364456 0.077409
v 0.089384 0.364456 0.000000
v -0.044692 0.364456 0.077409
v -0.089384 0.364456 0.000000
v -0.044692 0.364456 -0.077409
v 0.044692 0.364456 -0.077409
v 0.013625 0.384689 -0.114820
v -0.020990 0.384689 -0.114548
v 0.015007 0.384689 -0.097985
v -0.019608 0.384689 -0.097712
v 0.013625 0.572671 -0.114820
v -0.020990 0.572671 -0.114548
v 0.015007 0.572671 -0.097985
v -0.019608 0.572671 -0.097712
v -0.092625 0.384689 -0.069209
v -0.109696 0.384689 -0.039096
v -0.077354 0.384689 -0.061989
v -0.094425 0.384689 -0.031875
v -0.092625 0.572671 -0.069209
v -0.109696 0.572671 -0.039096
v -0.077354 0.572671 -0.061989
v -0.094425 0.572671 -0.031875
v -0.106249 0.384689 0.045611
v -0.088706 0.384689 0.075452
v -0.092361 0.384689 0.035996
v -0.074818 0.384689 0.065837
v -0.106249 0.572671 0.045611
v -0.088706 0.572671 0.075452
v -0.092361 0.572671 0.035996
v -0.074818 0.572671 0.065837
v -0.013624 0.384689 0.114820
v 0.020990 0.384689 0.114548
v -0.015007 0.384689 0.097985
v 0.019608 0.384689 0.097712
v -0.013624 0.572671 0.114820
v 0.020990 0.572671 0.114548
v -0.015007 0.572671 0.097985
v 0.019608 0.572671 0.097712
v 0.092625 0.384689 0.069209
v 0.109696 0.384689 0.039096
v 0.077354 0.384689 0.061989
v 0.094425 0.384689 0.031875
v 0.092625 0.572671 0.069209
v 0.109696 0.572671 0.039096
v 0.077354 0.572671 0.061989
v 0.094425 0.572671 0.031875
v 0.106249 0.384689 -0.045611
v 0.088706 0.384689 -0.075452
v 0.092361 0.384689 -0.035996
v 0.074818 0.384689 -0.065837
v 0.106249 0.572671 -0.045611
v 0.088706 0.572671 -0.075452
v 0.092361 0.572671 -0.035996
v 0.074818 0.572671 -0.065837
v 0.018835 0.438250 -0.122975
v 0.017099 0.438250 -0.144104
v -0.024608 0.438250 -0.122633
v -0.026344 0.438250 -0.143762
v 0.115917 0.438250 -0.045176
v 0.133347 0.438250 -0.057244
v 0.093899 0.438250 -0.082628
v 0.111330 0.438250 -0.094696
v 0.097082 0.438250 0.077799
v 0.116248 0.438250 0.086860
v 0.118508 0.438250 0.040005
v 0.137674 0.438250 0.049067
v -0.018835 0.438250 0.122975
v -0.017099 0.438250 0.144104
v 0.024609 0.438250 0.122633
v 0.026344 0.438250 0.143762
v -0.097082 0.438250 -0.077799
v -0.116248 0.438250 -0.086861
v -0.118508 0.438250 -0.040005
v -0.137674 0.438250 -0.049067
v -0.115917 0.438250 0.045176
v -0.133347 0.438250 0.057244
v -0.093899 0.438250 0.082628
v -0.111330 0.438250 0.094696
v 0.033150 0.166374 0.000000
v 0.016575 0.166374 -0.028709
v -0.016575 0.166374 -0.028709
v -0.033150 0.166374 0.000000
v -0.016575 0.166374 0.028709
v 0.016575 0.166374 0.028709
v -0.015894 0.137456 -0.027530
v -0.031789 0.137456 0.000000
v -0.015894 0.137456 0.027530
v 0.015894 0.137456 0.027530
v 0.031789 0.137456 0.000000
v 0.015894 0.137456 -0.027530
v 0.017183 -0.158816 0.029761
v -0.017183 -0.158816 -0.029761
v -0.034365 -0.158816 0.000000
v -0.017183 -0.158816 0.029761
v 0.034365 -0.158816 0.000000
v 0.017183 -0.158816 -0.029761
v 0.038902 0.140314 0.000000
v 0.040567 0.163516 0.000000
v 0.019451 0.140314 -0.033690
v 0.020284 0.163516 -0.035132
v 0.020284 0.163516 0.035132
v -0.020284 0.163516 0.035132
v -0.020284 0.163516 -0.035132
v -0.040567 0.163516 0.000000
v -0.019451 0.140314 -0.033690
v -0.038902 0.140314 0.000000
v -0.019451 0.140314 0.033690
v 0.019451 0.140314 0.033690
v -0.013715 -0.120587 -0.023755
v -0.027430 -0.120587 0.000000
v -0.013715 -0.120587 0.023755
v 0.013715 -0.120587 0.023755
v 0.027430 -0.120587 0.000000
v 0.013715 -0.120588 -0.023755
v 0.017183 -0.158816 0.288172
v -0.017183 -0.158816 0.288172
v 0.013715 -0.120587 0.282166
v -0.013715 -0.120587 0.282166
v 0.020284 0.163516 0.293543
v -0.020284 0.163516 0.293543
v -0.019451 0.140314 0.292101
v 0.019451 0.140314 0.292101
v 0.032834 0.364456 0.056870
v 0.065667 0.364456 0.000000
v -0.032834 0.364456 0.056870
v -0.065667 0.364456 0.000000
v -0.032834 0.364456 -0.056870
v 0.032834 0.364456 -0.056870
v 0.048510 0.500193 0.051287
v 0.091702 0.516750 -0.028834
v -0.037876 0.467078 0.051287
v -0.081069 0.450521 -0.028834
v -0.037876 0.467078 -0.108954
v 0.048510 0.500193 -0.108954
v 0.020834 0.573472 0.049285
v 0.058075 0.593739 -0.000386
v -0.041993 0.558821 0.039135
v -0.067580 0.564439 -0.020687
v -0.030339 0.584706 -0.070359
v 0.032488 0.599356 -0.060208
v 0.044059 0.731260 0.027701
v 0.070371 0.714411 -0.008489
v -0.002999 0.722903 0.028959
v -0.023745 0.697697 -0.005973
v 0.002568 0.680848 -0.042162
v 0.049626 0.689205 -0.043420
v 0.003585 0.899651 -0.088556
vn 0.4994 -0.0470 -0.8651
vn 0.7806 -0.6250 -0.0000
vn 0.9989 -0.0470 -0.0000
vn -0.4994 -0.0470 0.8651
vn -0.7806 -0.6250 -0.0000
vn -0.9989 -0.0470 -0.0000
vn -0.4994 -0.0470 -0.8651
vn -0.3903 -0.6250 -0.6760
vn 0.3903 -0.6250 -0.6761
vn 0.8901 -0.4557 -0.0000
vn 0.9999 0.0126 -0.0000
vn 0.4912 0.1865 0.8508
vn 0.5000 0.0126 0.8660
vn 0.3903 -0.6250 0.6760
vn 0.4994 -0.0470 0.8651
vn 0.4935 -0.1602 0.8548
vn 0.9871 -0.1602 -0.0000
vn -0.5000 0.0126 0.8660
vn -0.9999 0.0126 -0.0000
vn -0.4936 -0.1602 0.8548
vn -0.4935 -0.1602 -0.8548
vn -0.9871 -0.1602 -0.0000
vn 0.5000 0.0126 -0.8660
vn -0.5000 0.0126 -0.8660
vn 0.4936 -0.1602 -0.8548
vn -0.0000 -1.0000 -0.0000
vn -0.4912 0.1865 -0.8508
vn -0.4912 0.1865 0.8508
vn 0.4912 0.1865 -0.8508
vn 0.0939 -0.9822 -0.1627
vn -0.0939 -0.9822 -0.1627
vn 0.1878 -0.9822 -0.0000
vn 0.0540 -0.9942 0.0935
vn 0.0939 -0.9822 0.1627
vn -0.1165 0.9725 -0.2018
vn 0.3962 0.6099 -0.6863
vn -0.3962 0.6100 -0.6863
vn -0.1878 -0.9822 -0.0000
vn -0.0540 -0.9942 0.0935
vn 0.1165 0.9725 -0.2019
vn 0.7924 0.6100 -0.0000
vn 0.4450 -0.4557 -0.7709
vn 1.0000 -0.0000 -0.0000
vn -0.8901 -0.4557 -0.0000
vn -0.4451 -0.4557 -0.7709
vn -0.4450 -0.4557 0.7709
vn -0.3903 -0.6250 0.6761
vn 0.4451 -0.4557 0.7709
vn -0.5000 -0.0000 -0.8660
vn -0.5000 -0.0000 0.8660
vn 0.5000 -0.0000 -0.8660
vn -1.0000 -0.0000 -0.0000
vn 0.5000 -0.0000 0.8660
vn 0.9020 -0.4318 -0.0000
vn 0.4510 -0.4318 -0.7811
vn -0.0000 1.0000 -0.0000
vn -0.1818 0.9315 0.3149
vn -0.9020 -0.4318 -0.0000
vn -0.4510 -0.4318 -0.7811
vn 0.4510 -0.4318 0.7811
vn -0.4510 -0.4318 0.7811
vn -0.3636 0.9315 -0.0000
vn -0.3071 0.7892 0.5319
vn -0.6141 0.7892 -0.0000
vn 0.1818 0.9315 -0.3149
vn 0.3636 0.9315 -0.0000
vn -0.1818 0.9315 -0.3149
vn 0.1818 0.9315 0.3149
vn 0.3071 0.7892 0.5319
vn 0.3071 0.7892 -0.5319
vn 0.6141 0.7892 -0.0000
vn -0.3071 0.7892 -0.5319
vn -0.0040 -0.8613 -0.5081
vn -0.0042 -0.8445 -0.5355
vn 0.9957 0.0436 -0.0817
vn 0.9959 -0.0377 -0.0818
vn 0.9964 -0.0239 -0.0819
vn 0.0078 0.1219 0.9925
vn 0.0078 -0.1826 0.9832
vn 0.0078 0.1211 0.9926
vn -0.9965 -0.0191 0.0819
vn -0.9964 0.0219 0.0818
vn -0.9966 -0.0119 0.0819
vn -0.0077 0.2127 -0.9771
vn -0.0078 -0.1383 -0.9904
vn -0.0078 -0.1366 -0.9906
vn -0.4420 -0.8613 -0.2506
vn -0.4659 -0.8445 -0.2641
vn 0.4270 0.0436 -0.9032
vn 0.4271 -0.0377 -0.9034
vn 0.4273 -0.0239 -0.9038
vn 0.8634 0.1219 0.4895
vn 0.8553 -0.1826 0.4849
vn 0.8635 0.1211 0.4895
vn -0.4274 -0.0191 0.9039
vn -0.4274 0.0219 0.9038
vn -0.4274 -0.0120 0.9040
vn -0.8500 0.2127 -0.4819
vn -0.8616 -0.1383 -0.4884
vn -0.8618 -0.1366 -0.4886
vn -0.4380 -0.8613 0.2575
vn -0.4617 -0.8445 0.2714
vn -0.5687 0.0436 -0.8214
vn -0.5688 -0.0377 -0.8216
vn -0.5691 -0.0239 -0.8219
vn 0.8556 0.1219 -0.5030
vn 0.8476 -0.1826 -0.4983
vn 0.8557 0.1211 -0.5031
vn 0.5691 -0.0191 0.8220
vn 0.5691 0.0219 0.8220
vn 0.5692 -0.0119 0.8221
vn -0.8423 0.2127 0.4952
vn -0.8538 -0.1383 0.5019
vn -0.8540 -0.1366 0.5020
vn 0.0040 -0.8613 0.5081
vn 0.0042 -0.8445 0.5355
vn -0.9957 0.0436 0.0818
vn -0.9959 -0.0377 0.0818
vn -0.9964 -0.0239 0.0819
vn -0.0078 0.1219 -0.9925
vn -0.0078 -0.1826 -0.9832
vn -0.0078 0.1211 -0.9926
vn 0.9965 -0.0191 -0.0818
vn 0.9964 0.0219 -0.0818
vn 0.9966 -0.0120 -0.0818
vn 0.0077 0.2127 0.9771
vn 0.0078 -0.1383 0.9904
vn 0.0078 -0.1366 0.9906
vn 0.4420 -0.8613 0.2506
vn 0.4659 -0.8445 0.2641
vn -0.4270 0.0436 0.9032
vn -0.4271 -0.0377 0.9034
vn -0.4273 -0.0239 0.9038
vn -0.8634 0.1219 -0.4895
vn -0.8553 -0.1826 -0.4849
vn -0.8635 0.1211 -0.4895
vn 0.4274 -0.0191 -0.9039
vn 0.4274 0.0219 -0.9038
vn 0.4274 -0.0120 -0.9040
vn 0.8500 0.2127 0.4819
vn 0.8616 -0.1383 0.4884
vn 0.8618 -0.1366 0.4886
vn 0.4380 -0.8613 -0.2575
vn 0.4617 -0.8445 -0.2714
vn 0.5687 0.0436 0.8214
vn 0.5688 -0.0377 0.8216
vn 0.5691 -0.0239 0.8219
vn -0.8556 0.1219 0.5030
vn -0.8476 -0.1826 0.4983
vn -0.8557 0.1211 0.5031
vn -0.5691 -0.0191 -0.8220
vn -0.5691 0.0219 -0.8220
vn -0.5692 -0.0119 -0.8221
vn 0.8423 0.2127 -0.4952
vn 0.8538 -0.1383 -0.5019
vn 0.8540 -0.1366 -0.5020
vn -0.9951 -0.0549 0.0817
vn 0.0071 0.4224 0.9064
vn 0.9907 -0.1088 -0.0813
vn -0.5684 -0.0549 -0.8209
vn -0.7814 0.4224 0.4594
vn 0.5658 -0.1088 0.8173
vn 0.4268 -0.0549 -0.9027
vn -0.7885 0.4224 -0.4470
vn -0.4249 -0.1088 0.8987
vn 0.9951 -0.0549 -0.0817
vn -0.0071 0.4224 -0.9064
vn -0.9907 -0.1088 0.0814
vn -0.4268 -0.0549 0.9027
vn 0.7885 0.4224 0.4470
vn 0.4249 -0.1088 -0.8987
vn 0.5684 -0.0549 0.8209
vn 0.7814 0.4224 -0.4594
vn -0.5658 -0.1088 -0.8173
vn -0.3596 0.9331 -0.0000
vn -0.1798 0.9331 -0.3114
vn -0.7350 -0.6781 -0.0000
vn -0.6368 -0.7153 0.2879
vn -0.8542 -0.5200 -0.0000
vn 0.3675 -0.6781 0.6365
vn -0.3675 -0.6781 0.6365
vn 0.1798 0.9331 -0.3114
vn 0.7350 -0.6781 -0.0000
vn 0.4271 -0.5200 -0.7397
vn 0.8542 -0.5200 -0.0000
vn 0.3596 0.9331 -0.0000
vn 0.9637 0.1245 0.2361
vn 0.9839 0.1785 -0.0000
vn 0.4995 -0.0470 -0.8651
vn -0.4995 -0.0470 0.8651
vn -0.4995 -0.0470 -0.8651
vn 0.3675 -0.6781 -0.6365
vn 0.4995 -0.0470 0.8651
vn -0.7924 0.6099 -0.0000
vn -0.2330 0.9725 -0.0000
vn 0.4920 0.1785 -0.8521
vn -0.9637 0.1245 0.2361
vn -0.9839 0.1785 -0.0000
vn -0.4920 0.1785 -0.8521
vn -0.1051 0.9777 0.1821
vn 0.1051 0.9777 0.1821
vn 0.9669 -0.0503 0.2503
vn 0.6368 -0.7153 0.2879
vn -0.5913 0.7701 0.2394
vn 0.5913 0.7701 0.2394
vn -0.4987 -0.0716 -0.8638
vn -0.4271 -0.5200 -0.7397
vn -0.9669 -0.0503 0.2503
vn 0.4987 -0.0716 -0.8638
vn -0.3675 -0.6781 -0.6365
vn -0.1798 0.9331 0.3114
vn 0.1798 0.9331 0.3114
vn 0.1165 0.9725 0.2018
vn 0.2330 0.9725 -0.0000
vn -0.0939 -0.9822 0.1627
vn -0.1165 0.9725 0.2018
vn -0.0000 0.1552 0.9879
vn -0.0000 -0.0620 0.9981
vn -0.9994 -0.0359 -0.0000
vn 0.9959 0.0903 -0.0000
vn 0.9994 -0.0359 -0.0000
vn -0.9959 0.0903 -0.0000
vn 0.5312 -0.3708 -0.7618
vn -0.4573 -0.0900 -0.8848
vn 0.4929 0.0533 -0.8684
vn 0.9922 0.1112 -0.0570
vn 0.5187 0.3099 -0.7968
vn 0.9684 0.1552 0.1953
vn -0.9832 -0.1528 0.0997
vn -0.5250 0.0606 0.8490
vn -0.9963 -0.0567 -0.0644
vn 0.9842 -0.1687 0.0545
vn 0.5199 0.0736 0.8510
vn 0.4629 -0.0123 0.8863
vn -0.5057 -0.4167 -0.7554
vn -0.4808 0.0241 0.8765
vn -0.4007 0.1318 -0.9067
vn 0.5805 -0.0492 -0.8128
vn -0.9758 0.2140 -0.0452
vn -0.4744 0.3560 -0.8051
vn -0.6283 0.1129 0.7697
vn 0.2700 0.1078 0.9568
vn -0.9741 0.2191 -0.0555
vn -0.0964 0.9154 -0.3909
vn 0.4677 0.3444 0.8140
vn 0.9924 0.1095 0.0562
vn -0.4983 0.3335 0.8003
vn 0.9825 0.1865 -0.0000
vn -0.9825 0.1865 -0.0000
vn 0.9974 -0.0716 -0.0000
vn -0.9974 -0.0716 -0.0000
s 1
g off
g Torch_Cylinder.042_DarkMetal
usemtl DarkMetal
f 140//1 2//2 139//3
f 143//4 8//5 142//6
f 8//5 141//7 142//6
f 10//8 140//1 141//7
f 12//9 32//10 2//2
f 14//11 9//12 16//13
f 4//14 143//4 144//15
f 2//2 144//15 139//3
f 14//11 15//16 13//17
f 18//18 15//16 16//13
f 20//19 17//20 18//18
f 20//19 21//21 19//22
f 24//23 21//21 22//24
f 14//11 23//25 24//23
f 15//26 19//26 23//26
f 9//12 18//18 16//13
f 1//27 24//23 22//24
f 20//19 1//27 22//24
f 5//28 20//19 18//18
f 7//29 14//11 24//23
f 7//30 152//31 156//30
f 11//32 151//33 9//34
f 25//35 174//36 169//37
f 3//38 152//31 1//31
f 3//38 154//39 153//38
f 30//40 173//41 174//36
f 36//42 38//43 32//10
f 10//8 34//44 35//45
f 4//14 33//46 6//47
f 10//8 36//42 12//9
f 4//14 32//10 31//48
f 6//47 34//44 8//5
f 41//26 48//26 42//26
f 34//44 41//49 35//45
f 31//48 39//50 33//46
f 35//45 42//51 36//42
f 33//46 40//52 34//44
f 32//10 37//53 31//48
f 44//54 54//55 50//54
f 40//26 45//26 46//26
f 38//26 43//26 37//26
f 38//26 48//26 44//26
f 40//26 47//26 41//26
f 37//26 45//26 39//26
f 53//56 60//57 54//56
f 46//58 53//59 47//59
f 43//60 51//61 45//61
f 47//59 54//55 48//55
f 46//58 51//61 52//58
f 44//54 49//60 43//60
f 56//62 66//63 62//64
f 52//56 57//65 58//66
f 50//56 55//67 49//56
f 54//56 56//62 50//56
f 53//56 58//66 59//68
f 49//56 57//65 51//56
f 65//69 188//56 66//63
f 58//66 65//69 59//68
f 55//67 63//70 57//65
f 59//68 66//63 60//57
f 57//65 64//71 58//66
f 55//67 62//64 61//72
f 67//73 70//26 68//74
f 74//56 71//56 72//56
f 71//75 115//76 116//77
f 115//78 74//79 117//80
f 117//81 72//82 118//83
f 72//84 116//85 118//86
f 75//87 78//26 76//88
f 82//56 79//56 80//56
f 79//89 131//90 132//91
f 131//92 82//93 133//94
f 133//95 80//96 134//97
f 80//98 132//99 134//100
f 83//101 86//26 84//102
f 90//56 87//56 88//56
f 87//103 135//104 136//105
f 135//106 90//107 137//108
f 137//109 88//110 138//111
f 88//112 136//113 138//114
f 91//115 94//26 92//116
f 98//56 95//56 96//56
f 95//117 127//118 128//119
f 127//120 98//121 129//122
f 129//123 96//124 130//125
f 96//126 128//127 130//128
f 99//129 102//26 100//130
f 106//56 103//56 104//56
f 103//131 123//132 124//133
f 123//134 106//135 125//136
f 125//137 104//138 126//139
f 104//140 124//141 126//142
f 107//143 110//26 108//144
f 114//56 111//56 112//56
f 111//145 119//146 120//147
f 119//148 114//149 121//150
f 121//151 112//152 122//153
f 112//154 120//155 122//156
f 68//74 116//85 67//73
f 117//81 68//157 70//157
f 115//78 70//158 69//158
f 67//159 115//76 69//159
f 108//144 120//155 107//143
f 121//151 108//160 110//160
f 119//148 110//161 109//161
f 107//162 119//146 109//162
f 100//130 124//141 99//129
f 125//137 100//163 102//163
f 123//134 102//164 101//164
f 99//165 123//132 101//165
f 92//116 128//127 91//115
f 129//123 92//166 94//166
f 127//120 94//167 93//167
f 91//168 127//118 93//168
f 76//88 132//99 75//87
f 133//95 76//169 78//169
f 131//92 78//170 77//170
f 75//171 131//90 77//171
f 84//102 136//113 83//101
f 137//109 84//172 86//172
f 135//106 86//173 85//173
f 83//174 135//104 85//174
f 142//175 163//176 164//175
f 146//177 167//178 166//179
f 148//180 167//178 147//181
f 140//182 163//176 141//176
f 149//183 159//184 157//185
f 139//186 160//182 140//182
f 173//41 151//187 155//188
f 30//189 149//183 29//3
f 27//190 146//177 26//6
f 146//177 25//191 26//6
f 25//191 150//192 30//189
f 28//193 147//181 27//190
f 25//35 170//194 26//195
f 174//36 155//188 156//196
f 154//197 170//194 153//198
f 170//194 152//199 153//198
f 152//199 174//36 156//196
f 162//200 179//56 161//201
f 157//185 161//202 168//203
f 171//204 177//56 172//205
f 163//206 159//184 165//207
f 166//179 163//206 165//207
f 162//208 166//179 167//178
f 160//209 157//185 159//184
f 149//183 168//203 148//180
f 139//186 161//201 158//186
f 146//177 165//207 145//210
f 142//175 162//200 143//211
f 143//211 161//201 144//212
f 145//210 159//184 150//192
f 149//183 28//193 29//3
f 11//32 156//30 155//32
f 28//213 173//41 29//214
f 5//215 151//33 154//39
f 27//216 170//194 171//204
f 28//213 171//204 172//205
f 177//217 176//217 175//217
f 179//218 181//218 182//218
f 162//208 181//219 180//219
f 151//187 177//220 175//220
f 151//33 176//26 154//39
f 161//202 182//221 168//203
f 154//197 178//222 171//204
f 168//203 181//26 167//178
f 64//71 185//56 186//56
f 62//64 183//56 61//72
f 62//64 188//56 184//56
f 64//71 187//56 65//69
f 61//72 185//56 63//70
f 140//1 12//9 2//2
f 143//4 6//47 8//5
f 8//5 10//8 141//7
f 10//8 12//9 140//1
f 12//9 36//42 32//10
f 14//11 11//248 9//12
f 4//14 6//47 143//4
f 2//2 4//14 144//15
f 14//11 16//13 15//16
f 18//18 17//20 15//16
f 20//19 19//22 17//20
f 20//19 22//24 21//21
f 24//23 23//25 21//21
f 14//11 13//17 23//25
f 23//26 13//26 15//26
f 15//26 17//26 19//26
f 19//26 21//26 23//26
f 9//12 5//28 18//18
f 1//27 7//29 24//23
f 20//19 3//249 1//27
f 5//28 3//249 20//19
f 7//29 11//248 14//11
f 7//30 1//31 152//31
f 11//32 155//32 151//33
f 25//35 30//40 174//36
f 3//38 153//38 152//31
f 3//38 5//215 154//39
f 30//40 29//214 173//41
f 36//42 42//51 38//43
f 10//8 8//5 34//44
f 4//14 31//48 33//46
f 10//8 35//45 36//42
f 4//14 2//2 32//10
f 6//47 33//46 34//44
f 41//26 47//26 48//26
f 34//44 40//52 41//49
f 31//48 37//53 39//50
f 35//45 41//49 42//51
f 33//46 39//50 40//52
f 32//10 38//43 37//53
f 44//54 48//55 54//55
f 40//26 39//26 45//26
f 38//26 44//26 43//26
f 38//26 42//26 48//26
f 40//26 46//26 47//26
f 37//26 43//26 45//26
f 53//56 59//68 60//57
f 46//58 52//58 53//59
f 43//60 49//60 51//61
f 47//59 53//59 54//55
f 46//58 45//61 51//61
f 44//54 50//54 49//60
f 56//62 60//57 66//63
f 52//56 51//56 57//65
f 50//56 56//62 55//67
f 54//56 60//57 56//62
f 53//56 52//56 58//66
f 49//56 55//67 57//65
f 65//69 187//56 188//56
f 58//66 64//71 65//69
f 55//67 61//72 63//70
f 59//68 65//69 66//63
f 57//65 63//70 64//71
f 55//67 56//62 62//64
f 67//73 69//26 70//26
f 74//56 73//56 71//56
f 71//75 73//75 115//76
f 115//78 73//79 74//79
f 117//81 74//82 72//82
f 72//84 71//84 116//85
f 75//87 77//26 78//26
f 82//56 81//56 79//56
f 79//89 81//89 131//90
f 131//92 81//93 82//93
f 133//95 82//96 80//96
f 80//98 79//98 132//99
f 83//101 85//26 86//26
f 90//56 89//56 87//56
f 87//103 89//103 135//104
f 135//106 89//107 90//107
f 137//109 90//110 88//110
f 88//112 87//112 136//113
f 91//115 93//26 94//26
f 98//56 97//56 95//56
f 95//117 97//117 127//118
f 127//120 97//121 98//121
f 129//123 98//124 96//124
f 96//126 95//126 128//127
f 99//129 101//26 102//26
f 106//56 105//56 103//56
f 103//131 105//131 123//132
f 123//134 105//135 106//135
f 125//137 106//138 104//138
f 104//140 103//140 124//141
f 107//143 109//26 110//26
f 114//56 113//56 111//56
f 111//145 113//145 119//146
f 119//148 113//149 114//149
f 121//151 114//152 112//152
f 112//154 111//154 120//155
f 68//74 118//86 116//85
f 117//81 118//83 68//157
f 115//78 117//80 70//158
f 67//159 116//77 115//76
f 108//144 122//156 120//155
f 121//151 122//153 108//160
f 119//148 121//150 110//161
f 107//162 120//147 119//146
f 100//130 126//142 124//141
f 125//137 126//139 100//163
f 123//134 125//136 102//164
f 99//165 124//133 123//132
f 92//116 130//128 128//127
f 129//123 130//125 92//166
f 127//120 129//122 94//167
f 91//168 128//119 127//118
f 76//88 134//100 132//99
f 133//95 134//97 76//169
f 131//92 133//94 78//170
f 75//171 132//91 131//90
f 84//102 138//114 136//113
f 137//109 138//111 84//172
f 135//106 137//108 86//173
f 83//174 136//105 135//104
f 142//175 141//176 163//176
f 146//177 147//181 167//178
f 148//180 168//203 167//178
f 140//182 160//182 163//176
f 149//183 150//192 159//184
f 139//186 158//186 160//182
f 173//41 172//205 151//187
f 30//189 150//192 149//183
f 27//190 147//181 146//177
f 146//177 145//210 25//191
f 25//191 145//210 150//192
f 28//193 148//180 147//181
f 25//35 169//37 170//194
f 174//36 173//41 155//188
f 154//197 171//204 170//194
f 170//194 169//37 152//199
f 152//199 169//37 174//36
f 162//200 180//56 179//56
f 157//185 158//250 161//202
f 171//204 178//56 177//56
f 163//206 160//209 159//184
f 166//179 164//251 163//206
f 162//208 164//251 166//179
f 160//209 158//250 157//185
f 149//183 157//185 168//203
f 139//186 144//212 161//201
f 146//177 166//179 165//207
f 142//175 164//175 162//200
f 143//211 162//200 161//201
f 145//210 165//207 159//184
f 149//183 148//180 28//193
f 11//32 7//30 156//30
f 28//213 172//205 173//41
f 5//215 9//34 151//33
f 27//216 26//195 170//194
f 28//213 27//216 171//204
f 177//217 178//217 176//217
f 179//218 180//218 181//218
f 162//208 167//178 181//219
f 151//187 172//205 177//220
f 151//33 175//26 176//26
f 161//202 179//221 182//221
f 154//197 176//222 178//222
f 168//203 182//26 181//26
f 64//71 63//70 185//56
f 62//64 184//56 183//56
f 62//64 66//63 188//56
f 64//71 186//56 187//56
f 61//72 183//56 185//56
g Torch_Cylinder.042_Fire
usemtl Fire
f 188//223 193//224 194//225
f 190//226 200//227 196//228
f 186//229 191//230 192//231
f 184//232 189//233 183//234
f 188//223 190//226 184//232
f 187//235 192//231 193//224
f 183//234 191//230 185//236
f 200//227 205//237 206//238
f 193//224 198//239 199//240
f 189//233 197//241 191//230
f 194//225 199//240 200//227
f 191//230 198//239 192//231
f 189//233 196//228 195//242
f 205//237 204//243 207//244
f 197//241 204//243 198//239
f 196//228 201//245 195//242
f 196//228 206//238 202//246
f 199//240 204//243 205//237
f 195//242 203//247 197//241
f 203//247 201//245 207//244
f 206//238 205//237 207//244
f 204//243 203//247 207//244
f 201//245 202//246 207//244
f 202//246 206//238 207//244
f 188//223 187//235 193//224
f 190//226 194//225 200//227
f 186//229 185//236 191//230
f 184//232 190//226 189//233
f 188//223 194//225 190//226
f 187//235 186//229 192//231
f 183//234 189//233 191//230
f 200//227 199//240 205//237
f 193//224 192//231 198//239
f 189//233 195//242 197//241
f 194//225 193//224 199//240
f 191//230 197//241 198//239
f 189//233 190//226 196//228
f 197//241 203//247 204//243
f 196//228 202//246 201//245
f 196//228 200//227 206//238
f 199//240 198//239 204//243
f 195//242 201//245 203//247
